<svg width="88" height="60" viewBox="0 0 88 60" fill="none" xmlns="http://www.w3.org/2000/svg">
<g clip-path="url(#clip0_1_856)">
<path d="M88.006 20.1299L77.5347 30.2326L74.0151 16.1249L88.006 20.1299Z" fill="#FBAC66"/>
<path d="M55.8005 58.4654C63.1307 56.3486 69.3709 51.5063 73.2381 44.9338C77.1052 38.3613 78.3055 30.5581 76.5921 23.1286C74.8787 15.6991 70.3819 9.2078 64.0261 4.98921C57.6703 0.770623 49.9385 -0.854614 42.4204 0.447587L55.8005 58.4654Z" fill="#060FBF"/>
<path d="M0.00585938 27.0471L44.1368 16.8689L53.8344 58.8317C50.9436 59.5061 47.9937 59.8955 45.0268 59.9942C42.1449 60.077 39.2617 59.8823 36.417 59.4129C29.3928 58.2529 22.738 55.4651 16.9859 51.273C11.2338 47.0809 6.54415 41.601 3.2927 35.2723C1.93463 32.6427 0.833903 29.8881 0.00585938 27.0471Z" fill="#1D43C6"/>
<path d="M6.00948 53.0479L50.1345 42.8697L40.4427 0.901001C37.5426 1.57491 34.7154 2.53085 32.0017 3.75512C26.7759 6.10586 22.0501 9.43678 18.0806 13.5672C10.1193 21.8267 5.56786 32.7822 5.33466 44.2473C5.27814 47.1956 5.50411 50.1426 6.00948 53.0479Z" fill="#79FE9D"/>
<path d="M60.7921 17.171C61.9455 17.171 62.8805 16.2368 62.8805 15.0842C62.8805 13.9317 61.9455 12.9974 60.7921 12.9974C59.6386 12.9974 58.7036 13.9317 58.7036 15.0842C58.7036 16.2368 59.6386 17.171 60.7921 17.171Z" fill="white"/>
</g>
<defs>
<clipPath id="clip0_1_856">
<rect width="88" height="60" fill="white"/>
</clipPath>
</defs>
</svg>
