<svg width="691" height="238" viewBox="0 0 691 238" fill="none" xmlns="http://www.w3.org/2000/svg">
<path d="M289.63 87L283.85 24.95H294.305L297.45 66.43C297.507 67.2233 297.563 68.3567 297.62 69.83C297.677 71.2467 297.733 72.7483 297.79 74.335C297.903 75.865 297.96 77.2533 297.96 78.5C298.073 77.2533 298.187 75.865 298.3 74.335C298.47 72.7483 298.64 71.2467 298.81 69.83C298.98 68.3567 299.093 67.2233 299.15 66.43L303.74 24.95H313.43L317.85 66.43C317.963 67.2233 318.077 68.3567 318.19 69.83C318.36 71.2467 318.53 72.7483 318.7 74.335C318.927 75.865 319.097 77.2533 319.21 78.5C319.267 77.2533 319.323 75.865 319.38 74.335C319.437 72.7483 319.493 71.2467 319.55 69.83C319.607 68.3567 319.663 67.2233 319.72 66.43L322.61 24.95H333.15L326.945 87H313.685L309.52 45.775C309.407 44.8117 309.293 43.565 309.18 42.035C309.067 40.4483 308.953 38.805 308.84 37.105C308.727 35.405 308.613 33.9033 308.5 32.6C308.443 33.9033 308.358 35.405 308.245 37.105C308.132 38.805 308.018 40.4483 307.905 42.035C307.792 43.565 307.678 44.8117 307.565 45.775L302.975 87H289.63ZM357.342 87V64.9L339.492 24.95H352.837L360.657 43.65C361.45 45.52 362.13 47.5033 362.697 49.6C363.32 51.6967 363.745 53.3967 363.972 54.7C364.255 53.3967 364.652 51.6967 365.162 49.6C365.728 47.5033 366.38 45.52 367.117 43.65L374.682 24.95H387.942L370.092 64.9V87H357.342ZM419.274 87.85C415.137 87.85 411.51 87.085 408.394 85.555C405.277 83.9683 402.84 81.7867 401.084 79.01C399.384 76.1767 398.534 72.89 398.534 69.15V42.8C398.534 39.0033 399.384 35.7167 401.084 32.94C402.84 30.1633 405.277 28.01 408.394 26.48C411.51 24.8933 415.137 24.1 419.274 24.1C423.467 24.1 427.094 24.8933 430.154 26.48C433.27 28.01 435.679 30.1633 437.379 32.94C439.135 35.7167 440.014 39.0033 440.014 42.8H427.264C427.264 40.3067 426.555 38.4083 425.139 37.105C423.779 35.8017 421.824 35.15 419.274 35.15C416.724 35.15 414.74 35.8017 413.324 37.105C411.964 38.4083 411.284 40.3067 411.284 42.8V69.15C411.284 71.5867 411.964 73.485 413.324 74.845C414.74 76.1483 416.724 76.8 419.274 76.8C421.824 76.8 423.779 76.1483 425.139 74.845C426.555 73.485 427.264 71.5867 427.264 69.15H440.014C440.014 72.89 439.135 76.1767 437.379 79.01C435.679 81.7867 433.27 83.9683 430.154 85.555C427.094 87.085 423.467 87.85 419.274 87.85ZM455.45 87V75.95H467.775V36H455.45V24.95H492.85V36H480.525V75.95H492.85V87H455.45ZM510.497 87L504.717 24.95H515.172L518.317 66.43C518.374 67.2233 518.431 68.3567 518.487 69.83C518.544 71.2467 518.601 72.7483 518.657 74.335C518.771 75.865 518.827 77.2533 518.827 78.5C518.941 77.2533 519.054 75.865 519.167 74.335C519.337 72.7483 519.507 71.2467 519.677 69.83C519.847 68.3567 519.961 67.2233 520.017 66.43L524.607 24.95H534.297L538.717 66.43C538.831 67.2233 538.944 68.3567 539.057 69.83C539.227 71.2467 539.397 72.7483 539.567 74.335C539.794 75.865 539.964 77.2533 540.077 78.5C540.134 77.2533 540.191 75.865 540.247 74.335C540.304 72.7483 540.361 71.2467 540.417 69.83C540.474 68.3567 540.531 67.2233 540.587 66.43L543.477 24.95H554.017L547.812 87H534.552L530.387 45.775C530.274 44.8117 530.161 43.565 530.047 42.035C529.934 40.4483 529.821 38.805 529.707 37.105C529.594 35.405 529.481 33.9033 529.367 32.6C529.311 33.9033 529.226 35.405 529.112 37.105C528.999 38.805 528.886 40.4483 528.772 42.035C528.659 43.565 528.546 44.8117 528.432 45.775L523.842 87H510.497ZM578.209 87V64.9L560.359 24.95H573.704L581.524 43.65C582.317 45.52 582.997 47.5033 583.564 49.6C584.187 51.6967 584.612 53.3967 584.839 54.7C585.122 53.3967 585.519 51.6967 586.029 49.6C586.596 47.5033 587.247 45.52 587.984 43.65L595.549 24.95H608.809L590.959 64.9V87H578.209ZM640.141 87.85C636.004 87.85 632.377 87.085 629.261 85.555C626.144 83.9683 623.707 81.7867 621.951 79.01C620.251 76.1767 619.401 72.89 619.401 69.15V42.8C619.401 39.0033 620.251 35.7167 621.951 32.94C623.707 30.1633 626.144 28.01 629.261 26.48C632.377 24.8933 636.004 24.1 640.141 24.1C644.334 24.1 647.961 24.8933 651.021 26.48C654.137 28.01 656.546 30.1633 658.246 32.94C660.002 35.7167 660.881 39.0033 660.881 42.8H648.131C648.131 40.3067 647.422 38.4083 646.006 37.105C644.646 35.8017 642.691 35.15 640.141 35.15C637.591 35.15 635.607 35.8017 634.191 37.105C632.831 38.4083 632.151 40.3067 632.151 42.8V69.15C632.151 71.5867 632.831 73.485 634.191 74.845C635.607 76.1483 637.591 76.8 640.141 76.8C642.691 76.8 644.646 76.1483 646.006 74.845C647.422 73.485 648.131 71.5867 648.131 69.15V63.795H638.951V53H660.881V69.15C660.881 72.89 660.002 76.1767 658.246 79.01C656.546 81.7867 654.137 83.9683 651.021 85.555C647.961 87.085 644.334 87.85 640.141 87.85Z" fill="#79FE9D"/>
<path d="M286.12 173L283.4 143.8H288.32L289.8 163.32C289.827 163.693 289.853 164.227 289.88 164.92C289.907 165.587 289.933 166.293 289.96 167.04C290.013 167.76 290.04 168.413 290.04 169C290.093 168.413 290.147 167.76 290.2 167.04C290.28 166.293 290.36 165.587 290.44 164.92C290.52 164.227 290.573 163.693 290.6 163.32L292.76 143.8H297.32L299.4 163.32C299.453 163.693 299.507 164.227 299.56 164.92C299.64 165.587 299.72 166.293 299.8 167.04C299.907 167.76 299.987 168.413 300.04 169C300.067 168.413 300.093 167.76 300.12 167.04C300.147 166.293 300.173 165.587 300.2 164.92C300.227 164.227 300.253 163.693 300.28 163.32L301.64 143.8H306.6L303.68 173H297.44L295.48 153.6C295.427 153.147 295.373 152.56 295.32 151.84C295.267 151.093 295.213 150.32 295.16 149.52C295.107 148.72 295.053 148.013 295 147.4C294.973 148.013 294.933 148.72 294.88 149.52C294.827 150.32 294.773 151.093 294.72 151.84C294.667 152.56 294.613 153.147 294.56 153.6L292.4 173H286.12ZM309.624 173V143.8H315.624V151L315.424 155.2H317.184L315.424 156.6C315.424 154.733 315.958 153.267 317.024 152.2C318.091 151.133 319.531 150.6 321.344 150.6C323.478 150.6 325.184 151.347 326.464 152.84C327.771 154.333 328.424 156.32 328.424 158.8V173H322.424V159.4C322.424 158.253 322.118 157.373 321.504 156.76C320.918 156.12 320.078 155.8 318.984 155.8C317.918 155.8 317.091 156.12 316.504 156.76C315.918 157.373 315.624 158.253 315.624 159.4V173H309.624ZM340.129 173.4C337.915 173.4 336.155 172.8 334.849 171.6C333.569 170.4 332.929 168.773 332.929 166.72C332.929 164.507 333.689 162.813 335.209 161.64C336.755 160.44 338.969 159.84 341.849 159.84H346.409V158.2C346.409 157.347 346.102 156.667 345.489 156.16C344.902 155.653 344.102 155.4 343.089 155.4C342.155 155.4 341.382 155.613 340.769 156.04C340.155 156.467 339.782 157.053 339.649 157.8H333.849C334.089 155.587 335.049 153.84 336.729 152.56C338.435 151.253 340.622 150.6 343.289 150.6C346.089 150.6 348.302 151.293 349.929 152.68C351.582 154.04 352.409 155.88 352.409 158.2V173H346.609V169.4H345.649L346.649 168C346.649 169.653 346.049 170.973 344.849 171.96C343.675 172.92 342.102 173.4 340.129 173.4ZM342.369 169C343.542 169 344.502 168.693 345.249 168.08C346.022 167.44 346.409 166.613 346.409 165.6V163.24H341.969C341.062 163.24 340.329 163.507 339.769 164.04C339.209 164.547 338.929 165.227 338.929 166.08C338.929 166.987 339.235 167.707 339.849 168.24C340.462 168.747 341.302 169 342.369 169ZM369.353 173C367.113 173 365.353 172.36 364.073 171.08C362.793 169.8 362.153 168.04 362.153 165.8V156.4H356.353V151H362.153V144.8H368.153V151H376.353V156.4H368.153V165.8C368.153 167 368.753 167.6 369.953 167.6H375.953V173H369.353ZM409.202 180.2L412.202 171.92L403.962 151H410.482L413.802 160.6C414.042 161.32 414.282 162.2 414.522 163.24C414.789 164.253 414.989 165.08 415.122 165.72C415.255 165.08 415.442 164.253 415.682 163.24C415.949 162.2 416.202 161.32 416.442 160.6L419.642 151H425.882L415.482 180.2H409.202ZM438.906 173.4C436.96 173.4 435.266 173.04 433.826 172.32C432.386 171.573 431.266 170.547 430.466 169.24C429.693 167.907 429.306 166.36 429.306 164.6V159.4C429.306 157.64 429.693 156.107 430.466 154.8C431.266 153.467 432.386 152.44 433.826 151.72C435.266 150.973 436.96 150.6 438.906 150.6C440.88 150.6 442.573 150.973 443.986 151.72C445.426 152.44 446.533 153.467 447.306 154.8C448.106 156.107 448.506 157.64 448.506 159.4V164.6C448.506 166.36 448.106 167.907 447.306 169.24C446.533 170.547 445.426 171.573 443.986 172.32C442.573 173.04 440.88 173.4 438.906 173.4ZM438.906 168.2C440.08 168.2 440.973 167.893 441.586 167.28C442.2 166.64 442.506 165.747 442.506 164.6V159.4C442.506 158.227 442.2 157.333 441.586 156.72C440.973 156.107 440.08 155.8 438.906 155.8C437.76 155.8 436.866 156.107 436.226 156.72C435.613 157.333 435.306 158.227 435.306 159.4V164.6C435.306 165.747 435.613 166.64 436.226 167.28C436.866 167.893 437.76 168.2 438.906 168.2ZM462.891 173.4C459.931 173.4 457.611 172.6 455.931 171C454.277 169.4 453.451 167.213 453.451 164.44V151H459.451V164.4C459.451 165.627 459.744 166.573 460.331 167.24C460.917 167.88 461.771 168.2 462.891 168.2C463.984 168.2 464.824 167.88 465.411 167.24C466.024 166.573 466.331 165.627 466.331 164.4V151H472.331V164.44C472.331 167.24 471.491 169.44 469.811 171.04C468.131 172.613 465.824 173.4 462.891 173.4ZM510.979 173.4C509.033 173.4 507.326 173.04 505.859 172.32C504.393 171.573 503.259 170.547 502.459 169.24C501.659 167.907 501.259 166.36 501.259 164.6V159.4C501.259 157.613 501.659 156.067 502.459 154.76C503.259 153.453 504.393 152.44 505.859 151.72C507.326 150.973 509.033 150.6 510.979 150.6C513.886 150.6 516.206 151.333 517.939 152.8C519.673 154.267 520.593 156.267 520.699 158.8H514.699C514.619 157.867 514.246 157.133 513.579 156.6C512.939 156.067 512.073 155.8 510.979 155.8C509.779 155.8 508.859 156.107 508.219 156.72C507.579 157.333 507.259 158.227 507.259 159.4V164.6C507.259 165.747 507.579 166.64 508.219 167.28C508.859 167.893 509.779 168.2 510.979 168.2C512.073 168.2 512.939 167.947 513.579 167.44C514.246 166.907 514.619 166.16 514.699 165.2H520.699C520.593 167.733 519.673 169.733 517.939 171.2C516.206 172.667 513.886 173.4 510.979 173.4ZM534.844 173.4C532.897 173.4 531.204 173.04 529.764 172.32C528.324 171.573 527.204 170.547 526.404 169.24C525.63 167.907 525.244 166.36 525.244 164.6V159.4C525.244 157.64 525.63 156.107 526.404 154.8C527.204 153.467 528.324 152.44 529.764 151.72C531.204 150.973 532.897 150.6 534.844 150.6C536.817 150.6 538.51 150.973 539.924 151.72C541.364 152.44 542.47 153.467 543.244 154.8C544.044 156.107 544.444 157.64 544.444 159.4V164.6C544.444 166.36 544.044 167.907 543.244 169.24C542.47 170.547 541.364 171.573 539.924 172.32C538.51 173.04 536.817 173.4 534.844 173.4ZM534.844 168.2C536.017 168.2 536.91 167.893 537.524 167.28C538.137 166.64 538.444 165.747 538.444 164.6V159.4C538.444 158.227 538.137 157.333 537.524 156.72C536.91 156.107 536.017 155.8 534.844 155.8C533.697 155.8 532.804 156.107 532.164 156.72C531.55 157.333 531.244 158.227 531.244 159.4V164.6C531.244 165.747 531.55 166.64 532.164 167.28C532.804 167.893 533.697 168.2 534.844 168.2ZM556.548 173.4C554.335 173.4 552.561 172.627 551.228 171.08C549.895 169.533 549.228 167.44 549.228 164.8V159.2C549.228 156.587 549.895 154.507 551.228 152.96C552.561 151.387 554.335 150.6 556.548 150.6C558.361 150.6 559.788 151.133 560.828 152.2C561.868 153.24 562.388 154.707 562.388 156.6L560.988 155.2H562.388L562.188 149.8V143.8H568.188V173H562.388V168.8H560.988L562.388 167.4C562.388 169.293 561.868 170.773 560.828 171.84C559.788 172.88 558.361 173.4 556.548 173.4ZM558.708 168.2C559.801 168.2 560.655 167.893 561.268 167.28C561.881 166.64 562.188 165.747 562.188 164.6V159.4C562.188 158.253 561.881 157.373 561.268 156.76C560.655 156.12 559.801 155.8 558.708 155.8C557.588 155.8 556.721 156.12 556.108 156.76C555.521 157.373 555.228 158.253 555.228 159.4V164.6C555.228 165.747 555.521 166.64 556.108 167.28C556.721 167.893 557.588 168.2 558.708 168.2ZM582.853 173.4C580.906 173.4 579.199 173.04 577.733 172.32C576.293 171.573 575.173 170.547 574.373 169.24C573.599 167.907 573.213 166.36 573.213 164.6V159.4C573.213 157.64 573.599 156.107 574.373 154.8C575.173 153.467 576.293 152.44 577.733 151.72C579.199 150.973 580.906 150.6 582.853 150.6C584.799 150.6 586.479 150.973 587.893 151.72C589.333 152.44 590.439 153.467 591.213 154.8C592.013 156.107 592.413 157.64 592.413 159.4V163.4H578.933V164.6C578.933 165.987 579.266 167.04 579.933 167.76C580.599 168.453 581.599 168.8 582.933 168.8C583.866 168.8 584.613 168.64 585.173 168.32C585.759 168 586.146 167.56 586.333 167H592.213C591.733 168.92 590.639 170.467 588.933 171.64C587.253 172.813 585.226 173.4 582.853 173.4ZM586.693 160.32V159.32C586.693 157.96 586.373 156.92 585.733 156.2C585.119 155.48 584.159 155.12 582.853 155.12C581.546 155.12 580.559 155.493 579.893 156.24C579.253 156.987 578.933 158.04 578.933 159.4V160L587.093 159.92L586.693 160.32ZM621.581 173V167.56H629.181V156.4H622.581V151H634.781V167.56H641.181V173H621.581ZM631.581 147.52C630.488 147.52 629.608 147.24 628.941 146.68C628.301 146.12 627.981 145.36 627.981 144.4C627.981 143.44 628.301 142.68 628.941 142.12C629.608 141.56 630.488 141.28 631.581 141.28C632.675 141.28 633.541 141.56 634.181 142.12C634.848 142.68 635.181 143.44 635.181 144.4C635.181 145.36 634.848 146.12 634.181 146.68C633.541 147.24 632.675 147.52 631.581 147.52ZM653.846 173.4C652.032 173.4 650.446 173.12 649.086 172.56C647.726 171.973 646.659 171.173 645.886 170.16C645.139 169.147 644.766 167.96 644.766 166.6H650.766C650.766 167.24 651.046 167.76 651.606 168.16C652.192 168.533 652.939 168.72 653.846 168.72H655.606C656.699 168.72 657.526 168.52 658.086 168.12C658.672 167.72 658.966 167.16 658.966 166.44C658.966 165.773 658.712 165.267 658.206 164.92C657.699 164.547 656.912 164.293 655.846 164.16L653.286 163.84C650.539 163.493 648.539 162.827 647.286 161.84C646.032 160.853 645.406 159.347 645.406 157.32C645.406 155.187 646.139 153.533 647.606 152.36C649.072 151.187 651.219 150.6 654.046 150.6H655.566C658.259 150.6 660.406 151.187 662.006 152.36C663.606 153.533 664.406 155.107 664.406 157.08H658.406C658.406 156.547 658.139 156.12 657.606 155.8C657.099 155.453 656.419 155.28 655.566 155.28H654.046C653.059 155.28 652.339 155.453 651.886 155.8C651.432 156.12 651.206 156.613 651.206 157.28C651.206 157.893 651.406 158.36 651.806 158.68C652.232 159 652.899 159.227 653.806 159.36L656.566 159.72C659.339 160.067 661.392 160.76 662.726 161.8C664.086 162.84 664.766 164.387 664.766 166.44C664.766 168.68 663.992 170.4 662.446 171.6C660.899 172.8 658.619 173.4 655.606 173.4H653.846ZM286.6 226L283.4 204H288.2L289.8 216C289.933 216.88 290.04 217.88 290.12 219C290.227 220.12 290.307 221.04 290.36 221.76C290.44 221.04 290.547 220.133 290.68 219.04C290.84 217.92 290.987 216.907 291.12 216L292.96 204H297.12L298.88 216C299.013 216.907 299.147 217.92 299.28 219.04C299.44 220.16 299.56 221.08 299.64 221.8C299.693 221.053 299.773 220.12 299.88 219C300.013 217.853 300.133 216.853 300.24 216L301.92 204H306.6L303.36 226H297.36L295.72 213.6C295.613 212.853 295.493 211.96 295.36 210.92C295.227 209.88 295.12 209.013 295.04 208.32C294.933 209.013 294.813 209.88 294.68 210.92C294.547 211.96 294.427 212.853 294.32 213.6L292.64 226H286.6ZM309.624 226V196.8H315.624V204L315.424 208.2H317.184L315.424 209.6C315.424 207.733 315.958 206.267 317.024 205.2C318.091 204.133 319.531 203.6 321.344 203.6C323.478 203.6 325.184 204.347 326.464 205.84C327.771 207.333 328.424 209.32 328.424 211.8V226H322.424V212.4C322.424 211.253 322.118 210.373 321.504 209.76C320.918 209.12 320.078 208.8 318.984 208.8C317.918 208.8 317.091 209.12 316.504 209.76C315.918 210.373 315.624 211.253 315.624 212.4V226H309.624ZM340.129 226.4C337.915 226.4 336.155 225.8 334.849 224.6C333.569 223.4 332.929 221.773 332.929 219.72C332.929 217.507 333.689 215.813 335.209 214.64C336.755 213.44 338.969 212.84 341.849 212.84H346.409V211.2C346.409 210.347 346.102 209.667 345.489 209.16C344.902 208.653 344.102 208.4 343.089 208.4C342.155 208.4 341.382 208.613 340.769 209.04C340.155 209.467 339.782 210.053 339.649 210.8H333.849C334.089 208.587 335.049 206.84 336.729 205.56C338.435 204.253 340.622 203.6 343.289 203.6C346.089 203.6 348.302 204.293 349.929 205.68C351.582 207.04 352.409 208.88 352.409 211.2V226H346.609V222.4H345.649L346.649 221C346.649 222.653 346.049 223.973 344.849 224.96C343.675 225.92 342.102 226.4 340.129 226.4ZM342.369 222C343.542 222 344.502 221.693 345.249 221.08C346.022 220.44 346.409 219.613 346.409 218.6V216.24H341.969C341.062 216.24 340.329 216.507 339.769 217.04C339.209 217.547 338.929 218.227 338.929 219.08C338.929 219.987 339.235 220.707 339.849 221.24C340.462 221.747 341.302 222 342.369 222ZM369.353 226C367.113 226 365.353 225.36 364.073 224.08C362.793 222.8 362.153 221.04 362.153 218.8V209.4H356.353V204H362.153V197.8H368.153V204H376.353V209.4H368.153V218.8C368.153 220 368.753 220.6 369.953 220.6H375.953V226H369.353ZM409.202 233.2L412.202 224.92L403.962 204H410.482L413.802 213.6C414.042 214.32 414.282 215.2 414.522 216.24C414.789 217.253 414.989 218.08 415.122 218.72C415.255 218.08 415.442 217.253 415.682 216.24C415.949 215.2 416.202 214.32 416.442 213.6L419.642 204H425.882L415.482 233.2H409.202ZM438.906 226.4C436.96 226.4 435.266 226.04 433.826 225.32C432.386 224.573 431.266 223.547 430.466 222.24C429.693 220.907 429.306 219.36 429.306 217.6V212.4C429.306 210.64 429.693 209.107 430.466 207.8C431.266 206.467 432.386 205.44 433.826 204.72C435.266 203.973 436.96 203.6 438.906 203.6C440.88 203.6 442.573 203.973 443.986 204.72C445.426 205.44 446.533 206.467 447.306 207.8C448.106 209.107 448.506 210.64 448.506 212.4V217.6C448.506 219.36 448.106 220.907 447.306 222.24C446.533 223.547 445.426 224.573 443.986 225.32C442.573 226.04 440.88 226.4 438.906 226.4ZM438.906 221.2C440.08 221.2 440.973 220.893 441.586 220.28C442.2 219.64 442.506 218.747 442.506 217.6V212.4C442.506 211.227 442.2 210.333 441.586 209.72C440.973 209.107 440.08 208.8 438.906 208.8C437.76 208.8 436.866 209.107 436.226 209.72C435.613 210.333 435.306 211.227 435.306 212.4V217.6C435.306 218.747 435.613 219.64 436.226 220.28C436.866 220.893 437.76 221.2 438.906 221.2ZM462.891 226.4C459.931 226.4 457.611 225.6 455.931 224C454.277 222.4 453.451 220.213 453.451 217.44V204H459.451V217.4C459.451 218.627 459.744 219.573 460.331 220.24C460.917 220.88 461.771 221.2 462.891 221.2C463.984 221.2 464.824 220.88 465.411 220.24C466.024 219.573 466.331 218.627 466.331 217.4V204H472.331V217.44C472.331 220.24 471.491 222.44 469.811 224.04C468.131 225.613 465.824 226.4 462.891 226.4ZM504.659 233.2V228.4H510.859C511.979 228.4 512.833 228.12 513.419 227.56C514.033 227 514.339 226.227 514.339 225.24V224.4L514.419 220.2H513.019L514.419 218.8C514.419 220.693 513.899 222.173 512.859 223.24C511.819 224.28 510.393 224.8 508.579 224.8C506.366 224.8 504.593 224.027 503.259 222.48C501.926 220.933 501.259 218.84 501.259 216.2V212.2C501.259 209.587 501.926 207.507 503.259 205.96C504.593 204.387 506.366 203.6 508.579 203.6C510.393 203.6 511.819 204.133 512.859 205.2C513.899 206.24 514.419 207.707 514.419 209.6L513.019 208.2H514.419L514.219 204H520.219V225.44C520.219 227.84 519.393 229.733 517.739 231.12C516.113 232.507 513.886 233.2 511.059 233.2H504.659ZM510.739 219.6C511.833 219.6 512.686 219.293 513.299 218.68C513.913 218.04 514.219 217.147 514.219 216V212.4C514.219 211.253 513.913 210.373 513.299 209.76C512.686 209.12 511.833 208.8 510.739 208.8C509.619 208.8 508.753 209.12 508.139 209.76C507.553 210.373 507.259 211.253 507.259 212.4V216C507.259 217.147 507.553 218.04 508.139 218.68C508.753 219.293 509.619 219.6 510.739 219.6ZM534.884 226.4C532.937 226.4 531.23 226.04 529.764 225.32C528.324 224.573 527.204 223.547 526.404 222.24C525.63 220.907 525.244 219.36 525.244 217.6V212.4C525.244 210.64 525.63 209.107 526.404 207.8C527.204 206.467 528.324 205.44 529.764 204.72C531.23 203.973 532.937 203.6 534.884 203.6C536.83 203.6 538.51 203.973 539.924 204.72C541.364 205.44 542.47 206.467 543.244 207.8C544.044 209.107 544.444 210.64 544.444 212.4V216.4H530.964V217.6C530.964 218.987 531.297 220.04 531.964 220.76C532.63 221.453 533.63 221.8 534.964 221.8C535.897 221.8 536.644 221.64 537.204 221.32C537.79 221 538.177 220.56 538.364 220H544.244C543.764 221.92 542.67 223.467 540.964 224.64C539.284 225.813 537.257 226.4 534.884 226.4ZM538.724 213.32V212.32C538.724 210.96 538.404 209.92 537.764 209.2C537.15 208.48 536.19 208.12 534.884 208.12C533.577 208.12 532.59 208.493 531.924 209.24C531.284 209.987 530.964 211.04 530.964 212.4V213L539.124 212.92L538.724 213.32ZM561.228 226C558.988 226 557.228 225.36 555.948 224.08C554.668 222.8 554.028 221.04 554.028 218.8V209.4H548.228V204H554.028V197.8H560.028V204H568.228V209.4H560.028V218.8C560.028 220 560.628 220.6 561.828 220.6H567.828V226H561.228Z" fill="#79FE9D"/>
<path d="M283 115H666" stroke="#79FE9D" stroke-width="3"/>
<g clip-path="url(#clip0_94_38)">
<path d="M77.6104 125.222C77.6115 126.506 77.232 127.762 76.5198 128.83C75.8077 129.899 74.7948 130.732 73.6095 131.224C72.4242 131.716 71.1198 131.845 69.8612 131.595C68.6026 131.344 67.4465 130.726 66.5392 129.818C65.6318 128.91 65.0141 127.752 64.764 126.492C64.514 125.233 64.6428 123.927 65.1344 122.74C65.6259 121.554 66.4582 120.54 67.5256 119.827C68.593 119.114 69.8477 118.734 71.1308 118.735C72.8493 118.735 74.4973 119.419 75.7125 120.635C76.9276 121.851 77.6104 123.501 77.6104 125.222Z" fill="#F2F2F2"/>
<path d="M71.1306 140.128H63.251L67.1908 133.295L71.1306 126.467L75.0704 133.295L79.0102 140.128H71.1306Z" fill="#F2F2F2"/>
<path d="M234.607 40.7974H16.0195V182.89H234.607V40.7974Z" fill="#F9EAD4"/>
<path d="M136.765 228.999H115.759L126.259 210.792L136.765 192.584L147.266 210.792L157.766 228.999H136.765Z" fill="#F9EAD4"/>
<path d="M218.981 25.3931H0.393555V167.485H218.981V25.3931Z" fill="#79FE9D"/>
<path d="M218.981 25.3931H0.393555V167.485H218.981V25.3931Z" stroke="#231F20" stroke-width="1.35" stroke-miterlimit="10"/>
<path d="M235 41H16V183H235V41Z" fill="#060FBF"/>
<path d="M234.607 40.7974H16.0195V182.89H234.607V40.7974Z" stroke="#C3D5E1" stroke-width="1.35" stroke-miterlimit="10"/>
<path d="M121.003 221H99L109.998 202L121.003 183L132.002 202L143 221H121.003Z" fill="#1D43C6"/>
<path d="M129.204 149.579C150.024 149.579 166.901 132.684 166.901 111.844C166.901 91.0031 150.024 74.1084 129.204 74.1084C108.384 74.1084 91.5068 91.0031 91.5068 111.844C91.5068 132.684 108.384 149.579 129.204 149.579Z" stroke="#231F20" stroke-width="1.35" stroke-miterlimit="10"/>
<path d="M166.901 111.844C166.902 119.307 164.692 126.604 160.551 132.81C156.409 139.016 150.522 143.854 143.634 146.711C136.746 149.568 129.166 150.316 121.853 148.86C114.54 147.405 107.823 143.812 102.55 138.534C97.2775 133.257 93.6866 126.534 92.2316 119.213C90.7766 111.893 91.5228 104.306 94.3758 97.4102C97.2289 90.5146 102.061 84.6208 108.26 80.4742C114.459 76.3275 121.748 74.1143 129.204 74.1143C139.201 74.1143 148.788 78.0891 155.858 85.1646C162.927 92.2401 166.9 101.837 166.901 111.844Z" fill="#F9A86F"/>
<path d="M177.268 97.9448H73.3633V115.886H177.268V97.9448Z" fill="#11133C"/>
<path d="M86.7165 102.12C87.6646 101.171 88.8727 100.524 90.1881 100.262C91.5035 99.9994 92.867 100.134 94.1062 100.647C95.3454 101.161 96.4045 102.031 97.1497 103.147C97.8949 104.263 98.2927 105.576 98.2927 106.918C98.2927 108.261 97.8949 109.573 97.1497 110.689C96.4045 111.806 95.3454 112.675 94.1062 113.189C92.867 113.703 91.5035 113.837 90.1881 113.575C88.8727 113.313 87.6646 112.666 86.7165 111.716C86.0866 111.086 85.5868 110.338 85.2459 109.515C84.9049 108.692 84.7295 107.809 84.7295 106.918C84.7295 106.027 84.9049 105.144 85.2459 104.321C85.5868 103.498 86.0866 102.75 86.7165 102.12Z" fill="#F71E4D"/>
<path d="M116.094 102.12C117.042 101.171 118.25 100.524 119.566 100.262C120.881 99.9994 122.244 100.134 123.484 100.647C124.723 101.161 125.782 102.031 126.527 103.147C127.272 104.263 127.67 105.576 127.67 106.918C127.67 108.261 127.272 109.573 126.527 110.689C125.782 111.806 124.723 112.675 123.484 113.189C122.244 113.703 120.881 113.837 119.566 113.575C118.25 113.313 117.042 112.666 116.094 111.716C114.823 110.443 114.109 108.718 114.109 106.918C114.109 105.119 114.823 103.393 116.094 102.12Z" fill="#F71E4D"/>
<path d="M173.985 177.989C174.933 177.04 176.141 176.393 177.456 176.131C178.772 175.869 180.135 176.003 181.374 176.516C182.613 177.03 183.673 177.9 184.418 179.016C185.163 180.132 185.561 181.445 185.561 182.787C185.561 184.13 185.163 185.442 184.418 186.558C183.673 187.675 182.613 188.545 181.374 189.058C180.135 189.572 178.772 189.706 177.456 189.444C176.141 189.182 174.933 188.535 173.985 187.585C172.714 186.312 172 184.587 172 182.787C172 180.988 172.714 179.262 173.985 177.989Z" fill="#79FE9D"/>
</g>
<path d="M278.985 110.989C279.933 110.04 281.141 109.393 282.456 109.131C283.772 108.869 285.135 109.003 286.374 109.516C287.613 110.03 288.673 110.9 289.418 112.016C290.163 113.132 290.561 114.445 290.561 115.787C290.561 117.13 290.163 118.442 289.418 119.558C288.673 120.675 287.613 121.545 286.374 122.058C285.135 122.572 283.772 122.706 282.456 122.444C281.141 122.182 279.933 121.535 278.985 120.585C277.714 119.312 277 117.587 277 115.787C277 113.988 277.714 112.262 278.985 110.989Z" fill="#79FE9D"/>
<path d="M179.132 186C177.965 200.167 184.032 228.9 217.632 230.5C259.632 232.5 261.132 197.5 261.132 186C261.132 163 246 116 283.632 116" stroke="#79FE9D" stroke-width="2"/>
<defs>
<clipPath id="clip0_94_38">
<rect width="235" height="204" fill="white" transform="translate(0 25)"/>
</clipPath>
</defs>
</svg>
