<?xml version="1.0" standalone="no"?>
<!DOCTYPE svg PUBLIC "-//W3C//DTD SVG 20010904//EN"
 "http://www.w3.org/TR/2001/REC-SVG-20010904/DTD/svg10.dtd">
<svg version="1.0" xmlns="http://www.w3.org/2000/svg"
 width="832.000000pt" height="832.000000pt" viewBox="0 0 832.000000 832.000000"
 preserveAspectRatio="xMidYMid meet">
<metadata>
Created by potrace 1.14, written by Peter Selinger 2001-2017
</metadata>
<g transform="translate(0.000000,832.000000) scale(0.100000,-0.100000)"
fill="#000000" stroke="none">
<path d="M4258 7195 c-1 -1 -30 -5 -63 -8 -78 -8 -154 -17 -185 -22 -14 -2
-43 -7 -65 -11 -22 -3 -69 -13 -105 -21 -36 -8 -76 -17 -90 -20 -62 -11 -369
-111 -387 -126 -7 -5 -13 -7 -13 -3 0 3 -16 -3 -35 -14 -20 -11 -40 -20 -45
-20 -11 0 -196 -90 -285 -140 -67 -37 -298 -188 -332 -217 -12 -11 -34 -28
-49 -39 -15 -10 -35 -27 -46 -36 -10 -10 -20 -18 -22 -18 -14 0 -247 -228
-341 -334 -76 -86 -235 -297 -235 -312 0 -7 -7 -15 -16 -18 -8 -3 -12 -10 -9
-16 3 -5 1 -10 -4 -10 -6 0 -11 -6 -11 -14 0 -8 -3 -16 -8 -18 -7 -3 -84 -129
-93 -153 -2 -5 -22 -44 -44 -85 -21 -41 -40 -77 -40 -80 -1 -3 -14 -32 -28
-64 -15 -33 -30 -69 -33 -81 l-5 -21 -822 1 c-452 0 -828 -1 -834 -3 -19 -6
-19 -1432 0 -1433 6 0 337 0 735 -1 660 0 722 -2 723 -17 0 -9 2 -25 4 -36 4
-30 14 -96 19 -130 3 -16 14 -75 25 -130 19 -90 30 -134 64 -245 5 -19 9 -36
8 -38 -1 -1 6 -16 14 -32 8 -16 15 -31 15 -32 -4 -12 67 -189 122 -306 26 -57
48 -107 48 -112 0 -4 4 -10 8 -12 4 -1 25 -34 46 -73 137 -253 360 -532 604
-756 74 -68 239 -199 250 -199 6 0 12 -4 14 -8 3 -9 75 -59 183 -127 65 -41
315 -171 380 -197 56 -22 79 -31 85 -33 3 -1 16 -6 30 -12 94 -40 302 -104
382 -118 15 -3 40 -10 55 -16 15 -6 29 -10 31 -9 1 1 21 -2 45 -6 23 -3 53 -8
67 -9 14 -1 34 -5 45 -8 11 -3 49 -9 85 -12 36 -4 92 -10 125 -14 110 -13 482
-4 600 13 17 3 47 7 69 10 88 12 124 18 186 32 36 8 76 17 90 20 14 2 66 16
115 30 50 15 95 27 100 29 10 2 21 6 80 28 17 6 35 12 40 13 36 7 392 169 405
185 3 3 19 12 35 21 56 28 154 86 165 98 3 3 38 27 78 54 202 136 463 377 617
571 22 28 43 52 48 53 4 2 7 8 7 13 0 6 9 20 21 32 20 21 87 120 164 242 57
89 201 377 220 438 1 4 3 8 5 10 1 1 3 9 5 18 1 9 10 32 18 50 28 64 65 184
101 329 40 165 46 196 64 340 l7 55 410 2 c226 1 417 2 425 2 13 1 15 86 14
712 0 491 -4 713 -11 717 -6 4 -241 7 -522 6 l-510 0 -12 30 c-32 81 -107 232
-167 339 -37 65 -71 127 -77 138 -5 10 -13 19 -17 19 -5 0 -8 4 -8 10 0 8
-117 176 -146 210 -7 8 -41 49 -75 90 -81 99 -283 299 -384 380 -44 36 -84 68
-90 73 -41 34 -197 139 -280 188 -90 53 -310 166 -375 192 -14 5 -37 16 -52
24 -16 8 -28 12 -28 9 0 -2 -28 7 -62 21 -63 25 -167 59 -203 66 -11 2 -27 7
-35 10 -14 6 -78 22 -130 33 -14 2 -32 7 -40 9 -27 8 -184 34 -245 40 -33 4
-73 9 -90 12 -33 5 -491 13 -497 8z"/>
</g>
</svg>
